<svg xmlns="http://www.w3.org/2000/svg" width="16.951" height="16.059" viewBox="0 0 16.951 16.059">
  <path id="icons8-purchase_order" d="M3.784,3V13.706H2v2.677a2.68,2.68,0,0,0,2.677,2.677h11.6a2.69,2.69,0,0,0,2.677-2.677V3ZM5.569,4.784h11.6v11.6a.878.878,0,0,1-.892.892.893.893,0,0,1-.892-.892V13.706H5.569ZM7.353,6.569V8.353H9.137V6.569Zm3.569,0V8.353h4.461V6.569ZM7.353,10.137v1.784H9.137V10.137Zm3.569,0v1.784h4.461V10.137ZM3.784,15.49H13.6v.892a2.666,2.666,0,0,0,.153.892H4.677a.894.894,0,0,1-.892-.892Z" transform="translate(-2 -3)" fill="#ed2456"/>
</svg>
