<svg xmlns="http://www.w3.org/2000/svg" width="14.548" height="12.494" viewBox="0 0 14.548 12.494">
  <path id="icons8-error" d="M15.9,13.725,9.8,3.566a1.167,1.167,0,0,0-2,0L1.688,13.725a1.168,1.168,0,0,0,1,1.769H14.9a1.167,1.167,0,0,0,1-1.769Zm-6.76-.313H8.448a.347.347,0,0,1-.347-.347v-.694a.347.347,0,0,1,.347-.347h.694a.347.347,0,0,1,.347.347v.694A.347.347,0,0,1,9.142,13.412Zm-.347-2.777h0A.694.694,0,0,1,8.1,9.941V7.859a.694.694,0,0,1,.694-.694h0a.694.694,0,0,1,.694.694V9.941A.694.694,0,0,1,8.795,10.636Z" transform="translate(-1.521 -3)" fill="#022331" opacity="0.542"/>
</svg>
