<svg xmlns="http://www.w3.org/2000/svg" width="64.327" height="64.266" viewBox="0 0 64.327 64.266">
  <path id="Path_98" data-name="Path 98" d="M143.512,57.412h1.433a2.075,2.075,0,0,0,2.073-2.073V53.265a2.075,2.075,0,0,0-2.073-2.073h-22.93a9.324,9.324,0,0,0-3.2-5.631,9.66,9.66,0,0,0,2.208-7.5L119.163,23.8a11.43,11.43,0,0,0-11.305-9.927h-7.484a11.415,11.415,0,0,0-11.4,11.4V39.164a8.014,8.014,0,0,0,1.318,4.385A9.363,9.363,0,0,0,82.752,52.7V71.924a6.226,6.226,0,0,0,6.219,6.219h30.06a3.113,3.113,0,0,0,3.11-3.11V69.851H123.4a2.071,2.071,0,0,0,2.011-1.572l.933-3.733-3.567-7.135H129.4V76.07h-4.146v2.073h10.365V76.07H131.47V57.412h6.615l-3.568,7.135.933,3.733a2.07,2.07,0,0,0,2.012,1.571h6.673a2.07,2.07,0,0,0,2.011-1.572l.933-3.733Zm1.433-2.073H134.184l1.037-2.073h9.725Zm-29.023,0V53.265h9.725l1.037,2.073Zm12.043-2.073H132.9l-1.037,2.073H129Zm-8.059-2.073h-3.983a2.075,2.075,0,0,0-2.073,2.073v2.073a2.075,2.075,0,0,0,2.073,2.073h1.433l-3.416,6.831a4.141,4.141,0,0,0-1.272-.516,3.116,3.116,0,0,0-2.965-2.168V57.412a2.075,2.075,0,0,0-2.073-2.073V52.474l3.584-7.168,2.116.151a7.268,7.268,0,0,1,6.576,5.735Zm-7.987-25.531a17.509,17.509,0,0,1,1.919,7.274l-2.061,1.031v.64a4.088,4.088,0,0,1-.147,1.037h-1.681a2.7,2.7,0,0,1-2.427-1.5l-1.854.928a4.761,4.761,0,0,0,4.281,2.646h.4a4.106,4.106,0,0,1-2.714,1.037h-4.146v2.073h2.073v1.18a3.076,3.076,0,0,0,.265,1.236l-3.375,3.374-3.375-3.375a3.08,3.08,0,0,0,.265-1.236V29.424a3.113,3.113,0,0,1,3.11-3.11H109.7a4.11,4.11,0,0,0,2.215-.654Zm-5.609,24.818-2.4-2.4,3.324-3.324a3.074,3.074,0,0,0,1.208.349l.531.038Zm-8.652-5.721,3.324,3.324-2.4,2.4-2.666-5.333.531-.038a3.065,3.065,0,0,0,1.207-.349Zm1.68,7.9,3.11-3.11,3.11,3.11v2.681H99.337Zm8.292,4.754v4.829a3.415,3.415,0,0,0-.429.353l-1.037,1.037h-8.9V57.412Zm0,7.685,1.037-1.037a1.452,1.452,0,0,1,1.037-.429,1.038,1.038,0,0,1,1.037,1.037V65.7h1.037a2.073,2.073,0,0,1,0,4.146H107.63ZM91.045,25.279a9.34,9.34,0,0,1,9.329-9.329h7.484a9.354,9.354,0,0,1,9.25,8.123l1.86,14.258a7.7,7.7,0,0,1,.064.985,7.561,7.561,0,0,1-1.962,5.091,9.263,9.263,0,0,0-3.593-1.017l-4.884-.348a1.042,1.042,0,0,1-.963-1.035v-1.18a6.228,6.228,0,0,0,6.185-5.561l2.107-1.054v-.64a19.735,19.735,0,0,0-2.523-9.563,4.09,4.09,0,0,0,.45-1.839,4.151,4.151,0,0,0-4.146-4.146V20.1a2.073,2.073,0,1,1,0,4.146h-7.256a5.188,5.188,0,0,0-5.183,5.183V42.007a1.042,1.042,0,0,1-.963,1.035l-3.576.255a5.956,5.956,0,0,1-1.68-4.133ZM103.484,76.07A2.075,2.075,0,0,1,101.411,74V69.85H99.337V74a4.106,4.106,0,0,0,.576,2.073H95.191A2.075,2.075,0,0,1,93.118,74V69.85H91.045V74a4.106,4.106,0,0,0,.576,2.073H88.972a4.151,4.151,0,0,1-4.146-4.146V52.695a7.281,7.281,0,0,1,6.739-7.237l2.116-.151,3.584,7.168v2.865a2.075,2.075,0,0,0-2.073,2.073v6.219H93.118V51.193H91.045V64.239l-1.77,1.77,1.465,1.466,1.77-1.77h13.046v9.329a1.038,1.038,0,0,1-1.037,1.037Zm16.585-1.037a1.038,1.038,0,0,1-1.037,1.037H107.439a3.075,3.075,0,0,0,.191-1.037v-3.11h4.146a4.146,4.146,0,0,0,3.774-2.449,2.055,2.055,0,0,0,1.181.376h3.337Zm-3.337-7.256-.518-2.073h7.71l-.518,2.073Zm6.843-4.146h-7.011l3.11-6.219h.792ZM141.2,57.412l3.11,6.219h-7.011l3.11-6.219Zm-3.733,10.365-.518-2.073h7.71l-.518,2.073Z" transform="translate(-82.752 -13.877)"/>
</svg>
