<svg xmlns="http://www.w3.org/2000/svg" width="211.624" height="153.74" viewBox="0 0 211.624 153.74">
  <g id="Group_197" data-name="Group 197" transform="translate(0)">
    <path id="Path_13" data-name="Path 13" d="M406.765,185.041a76.847,76.847,0,0,0,89.422,75.849q1.8-.294,3.574-.675,2.4-.51,4.751-1.174a76.878,76.878,0,1,0-97.747-74Z" transform="translate(-406.765 -108.171)" fill="#e6e6e6" opacity="0.61"/>
    <g id="Group_195" data-name="Group 195" transform="translate(23.556 8.685)">
      <g id="Group_194" data-name="Group 194" transform="translate(0)">
        <path id="Path_57" data-name="Path 57" d="M181.546,561.7l-.228-.422c3.059-1.654,6.866-3.713,8.854-7.092a12.755,12.755,0,0,0,.115-11.8,20.958,20.958,0,0,0-8.541-8.71c-.785-.461-1.609-.9-2.406-1.32a26.358,26.358,0,0,1-5.561-3.574c-2.262-2.063-3.974-5.525-2.7-8.608a5.722,5.722,0,0,1,4.96-3.47l.027.479a5.243,5.243,0,0,0-4.545,3.178c-1.186,2.866.441,6.117,2.579,8.068a26,26,0,0,0,5.462,3.5c.8.425,1.63.864,2.424,1.33a21.431,21.431,0,0,1,8.731,8.916,13.239,13.239,0,0,1-.134,12.254C188.53,557.926,184.658,560.02,181.546,561.7Z" transform="translate(-165.237 -439.645)" fill="#f1f1f1"/>
        <ellipse id="Ellipse_50" data-name="Ellipse 50" cx="4.197" cy="2.039" rx="4.197" ry="2.039" transform="translate(9.647 75.509)" fill="#f1f1f1"/>
        <ellipse id="Ellipse_51" data-name="Ellipse 51" cx="4.197" cy="2.039" rx="4.197" ry="2.039" transform="translate(13.005 88.941)" fill="#f1f1f1"/>
        <ellipse id="Ellipse_52" data-name="Ellipse 52" cx="4.197" cy="2.039" rx="4.197" ry="2.039" transform="translate(5.329 91.1)" fill="#f1f1f1"/>
        <ellipse id="Ellipse_53" data-name="Ellipse 53" cx="4.197" cy="2.039" rx="4.197" ry="2.039" transform="translate(17.322 102.373)" fill="#f1f1f1"/>
        <ellipse id="Ellipse_54" data-name="Ellipse 54" cx="4.197" cy="2.039" rx="4.197" ry="2.039" transform="translate(25.717 102.373)" fill="#f1f1f1"/>
        <rect id="Rectangle_62" data-name="Rectangle 62" width="106.275" height="64.054" transform="translate(81.792 3.701)" fill="#e6e6e6"/>
        <rect id="Rectangle_75" data-name="Rectangle 75" width="98.555" height="53.442" transform="translate(85.652 9.194)" fill="#fff"/>
        <rect id="Rectangle_80" data-name="Rectangle 80" width="106.333" height="5.735" transform="translate(81.734)" fill="#ed2456"/>
        <circle id="Ellipse_90" data-name="Ellipse 90" cx="1.063" cy="1.063" r="1.063" transform="translate(84.933 1.59)" fill="#fff"/>
        <circle id="Ellipse_91" data-name="Ellipse 91" cx="1.063" cy="1.063" r="1.063" transform="translate(88.967 1.59)" fill="#fff"/>
        <circle id="Ellipse_92" data-name="Ellipse 92" cx="1.063" cy="1.063" r="1.063" transform="translate(93.002 1.59)" fill="#fff"/>
        <path id="Path_142" data-name="Path 142" d="M740.9,286.635a.515.515,0,0,0,0,1.03h28.256a.515.515,0,0,0,0-1.03Z" transform="translate(-637.227 -264.759)" fill="#e6e6e6"/>
        <path id="Path_143" data-name="Path 143" d="M740.9,299.518a.515.515,0,0,0,0,1.03h14.425a.515.515,0,0,0,0-1.03Z" transform="translate(-637.227 -274.552)" fill="#e6e6e6"/>
        <path id="Path_142-2" data-name="Path 142" d="M737.933,361.871a.515.515,0,1,0,0,1.03h52.979a.515.515,0,0,0,0-1.03Z" transform="translate(-634.973 -321.949)" fill="#e6e6e6"/>
        <path id="Path_143-2" data-name="Path 143" d="M737.932,374.754a.515.515,0,1,0,0,1.03h39.149a.515.515,0,0,0,0-1.03Z" transform="translate(-634.973 -331.742)" fill="#e6e6e6"/>
        <path id="Path_142-3" data-name="Path 142" d="M737.932,387.345a.515.515,0,0,0,0,1.03h52.979a.515.515,0,0,0,0-1.03Z" transform="translate(-634.973 -341.313)" fill="#e6e6e6"/>
        <path id="Path_143-3" data-name="Path 143" d="M737.932,400.227a.515.515,0,0,0,0,1.03h39.149a.515.515,0,0,0,0-1.03Z" transform="translate(-634.973 -351.106)" fill="#e6e6e6"/>
        <path id="Path_64" data-name="Path 64" d="M163.434,460.751h2.941l1.4-11.342h-4.34Z" transform="translate(-124.234 -341.618)" fill="#a0616a"/>
        <path id="Path_65" data-name="Path 65" d="M308.406,688.122H314.2a3.691,3.691,0,0,1,3.69,3.69v.12h-9.482Z" transform="translate(-269.955 -569.948)" fill="#2f2e41"/>
        <path id="Path_66" data-name="Path 66" d="M209.434,460.751h2.941l1.4-11.342h-4.34Z" transform="translate(-159.201 -341.618)" fill="#a0616a"/>
        <path id="Path_67" data-name="Path 67" d="M354.405,688.122H360.2a3.691,3.691,0,0,1,3.69,3.69v.12h-9.482Z" transform="translate(-304.922 -569.948)" fill="#2f2e41"/>
        <path id="Path_68" data-name="Path 68" d="M261,467.253a2.412,2.412,0,0,0-.452-3.671l2.043-8.324-4.2,1.495-1.3,7.675a2.425,2.425,0,0,0,3.9,2.824Z" transform="translate(-230.718 -392.938)" fill="#9e616a"/>
        <path id="Path_69" data-name="Path 69" d="M399.431,464.253a2.412,2.412,0,0,1,.452-3.671l-2.043-8.324,4.2,1.495,1.3,7.675a2.425,2.425,0,0,1-3.9,2.824Z" transform="translate(-337.938 -390.657)" fill="#9e616a"/>
        <path id="Path_70" data-name="Path 70" d="M142.367,274.54l4.076,47.746,5.964-.544,2.387-36.9,2.125,14.611.426,23.209,5.4-.36,3-24.969L165,273.153l-20.487-2.075Z" transform="translate(-108.22 -206.06)" fill="#2f2e41"/>
        <circle id="Ellipse_56" data-name="Ellipse 56" cx="6.185" cy="6.185" r="6.185" transform="translate(39.174 12.663)" fill="#a0616a"/>
        <path id="Path_71" data-name="Path 71" d="M305.693,235.8s2.886.773,4.381,1.082,1.34-.567,1.34-.567,1.958.258,1.855.052.825-1.288-.258-2.525a2.376,2.376,0,0,1-.773-2.165h-.928l-.258-.361H309.61a5.7,5.7,0,0,0-4.43-.987c-2.835.412-6.187,1.5-6.5,3.2-.042.231-.1.487-.161.758-.775,3.272.872,6.334,2.58,9.231.42.712,2.45,2.264,2.4,1.2s-1.828-3.457-.591-3.612S306.26,237.812,305.693,235.8Z" transform="translate(-262.293 -221.902)" fill="#2f2e41"/>
        <path id="Path_72" data-name="Path 72" d="M303.481,308.6h10.892l7.7,40.673s-6.714.574-10.552,2.013S301.305,348,301.305,348Z" transform="translate(-264.558 -281.458)" fill="#ed2456"/>
        <path id="Path_73" data-name="Path 73" d="M283.58,313.173V308.58l-1.233-.008-9.01,5.729,1.955,31.388s2.314,10.471,5.824,10.363S287.332,318.613,283.58,313.173Z" transform="translate(-243.298 -281.435)" fill="#2f2e41"/>
        <path id="Path_74" data-name="Path 74" d="M263.59,333.325l-2.894-.867a3.027,3.027,0,0,0-2.142,2.786c0,2.159-1.846,32.828-1.846,32.828l5.865.518,1.258-15.6Z" transform="translate(-230.656 -299.591)" fill="#2f2e41"/>
        <path id="Path_75" data-name="Path 75" d="M350.494,310.81l-.577-2.991,1.656-.247,6,2.4s5.4,39.456,3,40.655a4.405,4.405,0,0,1-4.018.27s-7.889-29.1-6.493-33.034Z" transform="translate(-301.49 -280.674)" fill="#2f2e41"/>
        <path id="Path_76" data-name="Path 76" d="M364.4,317.493l1.023-.445a3.539,3.539,0,0,1,4.708,1.517c1.7,3.006,7.7,36.585,7.7,36.585l-4.934.928-3.689-12.085Z" transform="translate(-312.522 -287.597)" fill="#2f2e41"/>
      </g>
    </g>
  </g>
</svg>
