<svg id="Group_193" data-name="Group 193" xmlns="http://www.w3.org/2000/svg" width="216.751" height="195.313" viewBox="0 0 216.751 195.313">
  <g id="Group_190" data-name="Group 190" transform="translate(0)">
    <path id="Path_13" data-name="Path 13" d="M406.765,185.593a77.4,77.4,0,0,0,90.063,76.393q1.813-.3,3.6-.68,2.421-.514,4.785-1.183a77.43,77.43,0,1,0-98.448-74.531Z" transform="translate(-398.027 -108.171)" fill="#e6e6e6" opacity="0.605"/>
    <path id="Path_14" data-name="Path 14" d="M578.062,407.714a.584.584,0,0,1,.24.789l-29.108,54.521a.584.584,0,0,1-.789.24l-41.148-21.969a.584.584,0,0,1-.24-.789l29.108-54.521a.584.584,0,0,1,.789-.24Z" transform="translate(-443.411 -306.396)" fill="#3f3d56"/>
    <path id="Path_15" data-name="Path 15" d="M576.47,419.641l-26.637,49.891-36.519-19.5,26.637-49.892Zm2.314,1.235-.005,0,.006,0Z" transform="translate(-445.643 -316.731)" fill="#fff"/>
    <path id="Path_16" data-name="Path 16" d="M580.612,451.63a1.446,1.446,0,0,1,.27,1.971c-.418.784-1.22,1.175-1.788.872l-26.746-14.28a1.446,1.446,0,0,1-.27-1.971c.418-.784,1.22-1.175,1.788-.872Z" transform="translate(-458.993 -343.235)" fill="#ed2456"/>
    <path id="Path_17" data-name="Path 17" d="M592.147,473.235a1.446,1.446,0,0,1,.27,1.971c-.418.784-1.22,1.175-1.788.872L563.883,461.8a1.446,1.446,0,0,1-.27-1.971c.418-.784,1.22-1.175,1.788-.872Z" transform="translate(-473.823 -358.667)" fill="#ed2456"/>
    <path id="Path_18" data-name="Path 18" d="M603.681,494.839a1.446,1.446,0,0,1,.27,1.971c-.418.784-1.22,1.175-1.788.872L575.417,483.4a1.446,1.446,0,0,1-.27-1.971c.418-.784,1.22-1.175,1.788-.872Z" transform="translate(-488.653 -374.099)" fill="#ed2456"/>
    <path id="Path_19" data-name="Path 19" d="M615.216,516.444a1.446,1.446,0,0,1,.27,1.971c-.418.784-1.22,1.175-1.788.872l-26.746-14.28a1.446,1.446,0,0,1-.27-1.971c.418-.784,1.22-1.175,1.788-.872Z" transform="translate(-503.483 -389.531)" fill="#ed2456"/>
    <path id="Path_20" data-name="Path 20" d="M626.75,538.048a1.446,1.446,0,0,1,.27,1.971c-.419.784-1.22,1.175-1.788.872l-26.746-14.28a1.446,1.446,0,0,1-.27-1.971c.418-.784,1.22-1.175,1.788-.872Z" transform="translate(-518.313 -404.964)" fill="#ed2456"/>
    <path id="Path_21" data-name="Path 21" d="M428.334,214.056l-24.235,1.48-6.787-20.24,21.257-4.491Z" transform="translate(-325.091 -136.293)" fill="#2f2e41"/>
    <ellipse id="Ellipse_48" data-name="Ellipse 48" cx="9.693" cy="9.693" rx="9.693" ry="9.693" transform="translate(76.073 53.259)" fill="#ffb8b8"/>
    <path id="Path_22" data-name="Path 22" d="M621.863,555.883l-.063.754a77.924,77.924,0,0,0,37.988,3.217l3.6-.68-3.425-7.6-2.246-4.98.808-17.227.086-1.783.106-2.274-1.463-.009-10.4-.063-9.911-.063-1.511-.009C625.957,536.827,618.137,546.3,621.863,555.883Z" transform="translate(-560.987 -406.039)" fill="#2f2e41"/>
    <path id="Path_23" data-name="Path 23" d="M635.74,413.2l23.141,2.571.857-16c2.716-6.926.923-13.109-4.713-18.656l-1.146-4.536a6.715,6.715,0,0,0-4.96-4.889h0a23.909,23.909,0,0,0-12.893-3.059h0a9.621,9.621,0,0,0-6.092,9.71A178.259,178.259,0,0,0,635.74,413.2Z" transform="translate(-561.151 -294.214)" fill="#ed2456"/>
    <path id="Path_24" data-name="Path 24" d="M646.27,280.951s5.012,1.829,5.141,8.478a12.006,12.006,0,0,1-.444,3.311c-.325,1.222-.586,3.874,1.6,7.408a68.524,68.524,0,0,1,3.866,7.118h0l-5.643.544-.933-9.355a46.432,46.432,0,0,0-3.317-13.189l-.036-.088s-2.589,4.5-7.509,4.361l1.807-1.708a62.063,62.063,0,0,1-9.514,2.787,2.122,2.122,0,0,0-1.278,3.529l.06.065c2.049,2.168,6.128,7.207,3.559,11s-.49,4.911-.49,4.911l-3.807-2.218-1.728-1.1-.04,1.406-9.108-1.312s-2.45-.421,2.99-6.247c0,0,1.458-2.281.9-4.3a10.1,10.1,0,0,1-.251-4.731C623.465,285.067,628.468,272.1,646.27,280.951Z" transform="translate(-553.172 -229.451)" fill="#2f2e41"/>
    <ellipse id="Ellipse_49" data-name="Ellipse 49" cx="34.854" cy="2" rx="34.854" ry="2" transform="translate(51.305 190.6)" fill="#e6e6e6"/>
    <path id="Path_25" data-name="Path 25" d="M250.892,415.968a.286.286,0,0,1,.2.35l-7.8,29.262a.286.286,0,0,1-.35.2L220.864,439.9a.286.286,0,0,1-.2-.35l7.8-29.262a.286.286,0,0,1,.35-.2Z" transform="translate(-34.353 -323.824)" fill="#f2f2f2"/>
    <path id="Path_26" data-name="Path 26" d="M254.188,438.022a.708.708,0,0,1,.349.91c-.112.421-.451.7-.755.616l-14.355-3.825a.709.709,0,0,1-.349-.91c.112-.421.451-.7.755-.616Z" transform="translate(-43.076 -341.045)" fill="#fff"/>
    <path id="Path_27" data-name="Path 27" d="M257.278,449.617a.709.709,0,0,1,.349.91c-.112.421-.451.7-.755.616l-14.355-3.825a.709.709,0,0,1-.349-.91c.112-.421.451-.7.755-.616Z" transform="translate(-47.048 -349.328)" fill="#fff"/>
    <path id="Path_28" data-name="Path 28" d="M260.367,461.213a.708.708,0,0,1,.349.91c-.112.421-.451.7-.755.616l-14.355-3.825a.708.708,0,0,1-.349-.91c.112-.421.451-.7.755-.616Z" transform="translate(-51.02 -357.611)" fill="#fff"/>
    <path id="Path_29" data-name="Path 29" d="M263.457,472.808a.708.708,0,0,1,.349.91c-.112.421-.451.7-.755.616L248.7,470.509a.708.708,0,0,1-.349-.91c.112-.421.451-.7.755-.616Z" transform="translate(-54.992 -365.893)" fill="#fff"/>
    <path id="Path_30" data-name="Path 30" d="M266.546,484.4a.708.708,0,0,1,.349.91c-.112.421-.451.7-.755.616L251.785,482.1a.708.708,0,0,1-.349-.91c.112-.421.451-.7.755-.616Z" transform="translate(-58.964 -374.176)" fill="#fff"/>
    <path id="Path_31" data-name="Path 31" d="M269.636,496a.709.709,0,0,1,.349.91c-.112.421-.451.7-.755.616L254.874,493.7a.709.709,0,0,1-.349-.91c.112-.421.451-.7.755-.616Z" transform="translate(-62.936 -382.459)" fill="#fff"/>
    <path id="Path_32" data-name="Path 32" d="M449.8,778.191c0,.036-.128.066-.286.066H419.234c-.158,0-.286-.03-.286-.066v-5.3c0-.036.128-.066.286-.066h30.283c.158,0,.286.03.286.066Z" transform="translate(-289.702 -582.943)" fill="#f2f2f2"/>
    <path id="Path_33" data-name="Path 33" d="M441.763,779.415c0,.073-.354.132-.79.132s-.79-.059-.79-.132v-3.442c0-.073.354-.132.79-.132s.79.059.79.132Z" transform="translate(-287.73 -585.095)" fill="#fff"/>
    <path id="Path_34" data-name="Path 34" d="M453.763,779.415c0,.073-.354.132-.79.132s-.79-.059-.79-.132v-3.442c0-.073.354-.132.79-.132s.79.059.79.132Z" transform="translate(-303.159 -585.095)" fill="#fff"/>
    <path id="Path_35" data-name="Path 35" d="M465.763,779.415c0,.073-.354.132-.79.132s-.79-.059-.79-.132v-3.442c0-.073.354-.132.79-.132s.79.059.79.132Z" transform="translate(-318.587 -585.095)" fill="#fff"/>
    <path id="Path_36" data-name="Path 36" d="M477.763,779.415c0,.073-.354.132-.79.132s-.79-.059-.79-.132v-3.442c0-.073.354-.132.79-.132s.79.059.79.132Z" transform="translate(-334.015 -585.095)" fill="#fff"/>
    <path id="Path_37" data-name="Path 37" d="M489.763,779.415c0,.073-.354.132-.79.132s-.79-.059-.79-.132v-3.442c0-.073.354-.132.79-.132s.79.059.79.132Z" transform="translate(-349.443 -585.095)" fill="#fff"/>
    <path id="Path_38" data-name="Path 38" d="M501.763,779.415c0,.073-.354.132-.79.132s-.79-.059-.79-.132v-3.442c0-.073.354-.132.79-.132s.79.059.79.132Z" transform="translate(-364.871 -585.095)" fill="#fff"/>
    <path id="Path_39" data-name="Path 39" d="M258.545,329.791a.286.286,0,0,1,.117.387L244.4,356.891a.286.286,0,0,1-.387.117l-20.162-10.764a.286.286,0,0,1-.117-.387L238,319.144a.286.286,0,0,1,.387-.117Z" transform="translate(-42.816 -258.764)" fill="#e6e6e6"/>
    <path id="Path_40" data-name="Path 40" d="M257.765,335.635l-13.052,24.446-17.893-9.553,13.052-24.446Zm1.134.605h0Z" transform="translate(-43.91 -263.827)" fill="#fff"/>
    <path id="Path_41" data-name="Path 41" d="M259.795,351.309a.709.709,0,0,1,.132.966c-.205.384-.6.576-.876.427l-13.1-7a.708.708,0,0,1-.132-.966c.205-.384.6-.576.876-.427Z" transform="translate(-50.451 -276.813)" fill="#ed2456"/>
    <path id="Path_42" data-name="Path 42" d="M265.446,361.895a.709.709,0,0,1,.132.966c-.205.384-.6.576-.876.427l-13.1-7a.708.708,0,0,1-.132-.966c.205-.384.6-.576.876-.427Z" transform="translate(-57.718 -284.375)" fill="#ed2456"/>
    <path id="Path_43" data-name="Path 43" d="M271.1,372.48a.709.709,0,0,1,.132.966c-.205.384-.6.576-.876.427l-13.1-7a.709.709,0,0,1-.132-.966c.205-.384.6-.576.876-.427Z" transform="translate(-64.984 -291.937)" fill="#ed2456"/>
    <path id="Path_44" data-name="Path 44" d="M276.75,383.066a.708.708,0,0,1,.132.966c-.205.384-.6.576-.876.427l-13.1-7a.708.708,0,0,1-.132-.966c.2-.384.6-.576.876-.427Z" transform="translate(-72.25 -299.498)" fill="#ed2456"/>
    <path id="Path_45" data-name="Path 45" d="M282.4,393.652a.708.708,0,0,1,.132.966c-.205.384-.6.576-.876.427l-13.1-7a.709.709,0,0,1-.132-.966c.2-.384.6-.576.876-.427Z" transform="translate(-79.517 -307.06)" fill="#ed2456"/>
    <path id="Path_46" data-name="Path 46" d="M288.053,404.238a.708.708,0,0,1,.132.966c-.205.384-.6.576-.876.427l-13.105-7a.709.709,0,0,1-.132-.966c.205-.384.6-.576.876-.427Z" transform="translate(-86.783 -314.621)" fill="#ed2456"/>
    <path id="Path_47" data-name="Path 47" d="M874.365,595.647a.286.286,0,0,1,.391.1l15.407,26.071a.286.286,0,0,1-.1.391l-19.676,11.628a.286.286,0,0,1-.391-.1l-15.407-26.071a.286.286,0,0,1,.1-.391Z" transform="translate(-854.548 -456.352)" fill="#e6e6e6"/>
    <path id="Path_48" data-name="Path 48" d="M879.175,601.135l14.1,23.857-17.463,10.32-14.1-23.858Zm1.107-.654h0l0,0Z" transform="translate(-859.666 -459.833)" fill="#fff"/>
    <path id="Path_49" data-name="Path 49" d="M920.628,621a.831.831,0,0,1,.8,1.36l-12.79,7.558a.831.831,0,0,1-.8-1.36Z" transform="translate(-901.168 -474.45)" fill="#ed2456"/>
    <path id="Path_50" data-name="Path 50" d="M914.523,631.333a.831.831,0,0,1,.8,1.36l-12.79,7.558a.831.831,0,0,1-.8-1.36Z" transform="translate(-893.319 -481.829)" fill="#ed2456"/>
    <path id="Path_51" data-name="Path 51" d="M908.418,641.664a.831.831,0,0,1,.8,1.36l-12.79,7.558a.831.831,0,0,1-.8-1.36Z" transform="translate(-885.47 -489.209)" fill="#ed2456"/>
    <path id="Path_52" data-name="Path 52" d="M902.313,652a.831.831,0,0,1,.8,1.359l-12.79,7.558a.831.831,0,0,1-.8-1.36Z" transform="translate(-877.62 -496.588)" fill="#ed2456"/>
    <path id="Path_53" data-name="Path 53" d="M896.208,662.326a.831.831,0,0,1,.8,1.36l-12.79,7.558a.831.831,0,0,1-.8-1.36Z" transform="translate(-869.771 -503.968)" fill="#ed2456"/>
    <path id="Path_54" data-name="Path 54" d="M890.1,672.657a.831.831,0,0,1,.8,1.36l-12.79,7.558a.831.831,0,0,1-.8-1.36Z" transform="translate(-861.922 -511.347)" fill="#ed2456"/>
    <path id="Path_55" data-name="Path 55" d="M603.8,429.671l.3,1.84,3.131,19.3,1.966,6.277.691,2.208.58,1.857,7.048,22.512,1.934,4.543a5.427,5.427,0,1,1-6.346,2l-13.795-32.09-.511-1.1-1.566-3.357-2.957-22.309-.186-1.4Z" transform="translate(-512.931 -337.822)" fill="#ffb8b8"/>
    <path id="Path_56" data-name="Path 56" d="M656.265,394.8c4.49-1.613,8.8-1.785,12.856,0L667.8,383.318a5.477,5.477,0,0,0-5.186-5.655h0a5.477,5.477,0,0,0-5.757,5.181v.019Z" transform="translate(-576.819 -300.667)" fill="#ed2456"/>
  </g>
</svg>
